<svg xmlns="http://www.w3.org/2000/svg" xmlns:svg="http://www.w3.org/2000/svg" id="svg5" version="1.1" viewBox="0 0.587 494.972 413.945"><path id="path1" d="M 209.353 407.486 C 269.933 407.486 325.261 379.925 361.917 334.762 C 367.339 328.081 361.427 318.321 353.046 319.916 C 257.758 338.064 170.251 265.003 170.251 168.813 C 170.251 113.404 199.913 62.452 248.121 35.018 C 255.552 30.789 253.683 19.522 245.239 17.963 C 233.402 15.78 221.39 14.681 209.353 14.679 C 100.941 14.679 12.95 102.532 12.95 211.083 C 12.95 319.495 100.803 407.486 209.353 407.486 Z" class="st1" style="fill:#7600c3;fill-opacity:1"/><g id="g5" transform="matrix(0.19536555,-0.08235951,0.08235951,0.19536555,191.47,189.14735)" style="fill:#71f;fill-opacity:1"><g id="g4" style="fill:#71f;fill-opacity:1"><g id="g2" transform="translate(660.61987,-430.64142)" style="fill:#71f;fill-opacity:1"><path id="path2" d="m 331.9,56.7 32.6,79.8 c 2.5,6.2 8,10.1 14.6,10.6 l 86,6.4 c 14.2,1 25.7,10.1 30.1,23.6 4.4,13.5 0.4,27.6 -10.5,36.8 l -65.9,55.7 c -5.1,4.3 -7.2,10.7 -5.6,17.2 l 20.5,83.8 c 3.4,13.8 -1.6,27.6 -13.2,35.9 -11.5,8.4 -26.1,8.9 -38.2,1.4 l -82.4,-51 -82.4,51 c -12.1,7.5 -26.7,7 -38.2,-1.4 -11.5,-8.4 -16.5,-22.1 -13.2,-35.9 l 20.5,-83.8 c 1.6,-6.5 -0.5,-12.9 -5.6,-17.2 l -65.9,-55.7 c -10.9,-9.2 -14.9,-23.3 -10.5,-36.8 4.4,-13.5 15.9,-22.6 30.1,-23.6 l 86,-6.4 c 6.7,-0.5 12.1,-4.4 14.6,-10.6 l 32.6,-79.8 c 5.4,-13.2 17.5,-21.3 31.8,-21.3 14.7,-0.1 26.8,8.1 32.2,21.3 z" class="st0" style="clip-rule:evenodd;fill:#71f;fill-opacity:1;fill-rule:evenodd"/></g><g id="g3" transform="translate(627.2677,362.79053)" style="fill:#71f;fill-opacity:1"><path id="path3" d="m 331.9,56.7 32.6,79.8 c 2.5,6.2 8,10.1 14.6,10.6 l 86,6.4 c 14.2,1 25.7,10.1 30.1,23.6 4.4,13.5 0.4,27.6 -10.5,36.8 l -65.9,55.7 c -5.1,4.3 -7.2,10.7 -5.6,17.2 l 20.5,83.8 c 3.4,13.8 -1.6,27.6 -13.2,35.9 -11.5,8.4 -26.1,8.9 -38.2,1.4 l -82.4,-51 -82.4,51 c -12.1,7.5 -26.7,7 -38.2,-1.4 -11.5,-8.4 -16.5,-22.1 -13.2,-35.9 l 20.5,-83.8 c 1.6,-6.5 -0.5,-12.9 -5.6,-17.2 l -65.9,-55.7 c -10.9,-9.2 -14.9,-23.3 -10.5,-36.8 4.4,-13.5 15.9,-22.6 30.1,-23.6 l 86,-6.4 c 6.7,-0.5 12.1,-4.4 14.6,-10.6 l 32.6,-79.8 c 5.4,-13.2 17.5,-21.3 31.8,-21.3 14.7,-0.1 26.8,8.1 32.2,21.3 z" class="st0" style="clip-rule:evenodd;fill:#71f;fill-opacity:1;fill-rule:evenodd"/></g><path id="path4" d="m 331.9,56.7 32.6,79.8 c 2.5,6.2 8,10.1 14.6,10.6 l 86,6.4 c 14.2,1 25.7,10.1 30.1,23.6 4.4,13.5 0.4,27.6 -10.5,36.8 l -65.9,55.7 c -5.1,4.3 -7.2,10.7 -5.6,17.2 l 20.5,83.8 c 3.4,13.8 -1.6,27.6 -13.2,35.9 -11.5,8.4 -26.1,8.9 -38.2,1.4 l -82.4,-51 -82.4,51 c -12.1,7.5 -26.7,7 -38.2,-1.4 -11.5,-8.4 -16.5,-22.1 -13.2,-35.9 l 20.5,-83.8 c 1.6,-6.5 -0.5,-12.9 -5.6,-17.2 l -65.9,-55.7 c -10.9,-9.2 -14.9,-23.3 -10.5,-36.8 4.4,-13.5 15.9,-22.6 30.1,-23.6 l 86,-6.4 c 6.7,-0.5 12.1,-4.4 14.6,-10.6 l 32.6,-79.8 c 5.4,-13.2 17.5,-21.3 31.8,-21.3 14.7,-0.1 26.8,8.1 32.2,21.3 z" class="st0" style="clip-rule:evenodd;fill:#71f;fill-opacity:1;fill-rule:evenodd"/></g></g></svg>